/* XPM */
static char * logo unsmoothed_xpm[] = {
"32 32 35 1",
" 	c #C800E5",
".	c #C700E4",
"+	c #B400CD",
"@	c #7E0090",
"#	c #CD00EB",
"$	c #D000EE",
"%	c #130015",
"&	c #000000",
"*	c #690078",
"=	c #CC00EA",
"-	c #3F0048",
";	c #9400AA",
">	c #D400F3",
",	c #CE00EC",
"'	c #9600AC",
")	c #7F0092",
"!	c #800093",
"~	c #7E0091",
"{	c #AE00C7",
"]	c #C900E6",
"^	c #690079",
"/	c #2B0032",
"(	c #28002E",
"_	c #27002D",
":	c #A100B8",
"<	c #D000EF",
"[	c #09000B",
"}	c #830096",
"|	c #CF00ED",
"1	c #51005C",
"2	c #490053",
"3	c #CA00E7",
"4	c #BF00DB",
"5	c #CC00E9",
"6	c #C400E1",
"                                ",
"                                ",
"                                ",
"                                ",
"                                ",
"                                ",
"                                ",
"                                ",
"                                ",
"                                ",
"                                ",
"            .+@#.+@#            ",
"            $%&*$%&*            ",
"            =-&;=-&;            ",
"            .#> .#>             ",
"             ,')!~{]            ",
"            ]^&/(_&:.           ",
"            <[}|,<123           ",
"            .45   .6.           ",
"                                ",
"                                ",
"                                ",
"                                ",
"                                ",
"                                ",
"                                ",
"                                ",
"                                ",
"                                ",
"                                ",
"                                ",
"                                "};
